REM DIRINDEX 1\3,1\2\4,1\2\5,1\2\6
REM DIRNAME cjc137,folder01,folder02,folder03,folder04,folder05
TITLE ""
FILE "053.mp3" MP3
  TRACK 01 AUDIO
    TITLE "4:cjc137_2182"
    INDEX 01 00:00:00
  TRACK 02 AUDIO
    TITLE "0:"
    INDEX 01 00:01:15
  TRACK 03 AUDIO
    TITLE "6:cjc137_2183"
    INDEX 01 00:01:22
  TRACK 04 AUDIO
    TITLE "0:"
    INDEX 01 00:02:34
  TRACK 05 AUDIO
    TITLE "5:cjc137_2184"
    INDEX 01 00:02:42
  TRACK 06 AUDIO
    TITLE "0:"
    INDEX 01 00:03:55
  TRACK 07 AUDIO
    TITLE "4:cjc137_2185"
    INDEX 01 00:04:62
  TRACK 08 AUDIO
    TITLE "0:"
    INDEX 01 00:05:69
  TRACK 09 AUDIO
    TITLE "6:cjc137_2186"
    INDEX 01 00:06:00
  TRACK 10 AUDIO
    TITLE "0:"
    INDEX 01 00:06:73
  TRACK 11 AUDIO
    TITLE "5:cjc137_2187"
    INDEX 01 00:07:03
  TRACK 12 AUDIO
    TITLE "0:"
    INDEX 01 00:08:09
  TRACK 13 AUDIO
    TITLE "4:cjc137_2188"
    INDEX 01 00:09:18
  TRACK 14 AUDIO
    TITLE "0:"
    INDEX 01 00:10:12
  TRACK 15 AUDIO
    TITLE "6:cjc137_2189"
    INDEX 01 00:10:21
  TRACK 16 AUDIO
    TITLE "0:"
    INDEX 01 00:11:15
  TRACK 17 AUDIO
    TITLE "5:cjc137_2190"
    INDEX 01 00:11:23
  TRACK 18 AUDIO
    TITLE "0:"
    INDEX 01 00:12:22
  TRACK 19 AUDIO
    TITLE "4:cjc137_2191"
    INDEX 01 00:13:26
  TRACK 20 AUDIO
    TITLE "0:"
    INDEX 01 00:14:27
  TRACK 21 AUDIO
    TITLE "6:cjc137_2192"
    INDEX 01 00:14:35
  TRACK 22 AUDIO
    TITLE "0:"
    INDEX 01 00:15:25
  TRACK 23 AUDIO
    TITLE "5:cjc137_2193"
    INDEX 01 00:15:28
  TRACK 24 AUDIO
    TITLE "0:"
    INDEX 01 00:16:30
  TRACK 25 AUDIO
    TITLE "4:cjc137_2194"
    INDEX 01 00:17:37
  TRACK 26 AUDIO
    TITLE "0:"
    INDEX 01 00:18:58
  TRACK 27 AUDIO
    TITLE "6:cjc137_2195"
    INDEX 01 00:18:62
  TRACK 28 AUDIO
    TITLE "0:"
    INDEX 01 00:19:73
  TRACK 29 AUDIO
    TITLE "5:cjc137_2196"
    INDEX 01 00:20:04
  TRACK 30 AUDIO
    TITLE "0:"
    INDEX 01 00:21:25
  TRACK 31 AUDIO
    TITLE "4:cjc137_2197"
    INDEX 01 00:22:30
  TRACK 32 AUDIO
    TITLE "0:"
    INDEX 01 00:23:34
  TRACK 33 AUDIO
    TITLE "6:cjc137_2198"
    INDEX 01 00:23:40
  TRACK 34 AUDIO
    TITLE "0:"
    INDEX 01 00:24:61
  TRACK 35 AUDIO
    TITLE "5:cjc137_2199"
    INDEX 01 00:24:69
  TRACK 36 AUDIO
    TITLE "0:"
    INDEX 01 00:25:70
  TRACK 37 AUDIO
    TITLE "4:cjc137_2200"
    INDEX 01 00:27:02
  TRACK 38 AUDIO
    TITLE "0:"
    INDEX 01 00:28:06
  TRACK 39 AUDIO
    TITLE "6:cjc137_2201"
    INDEX 01 00:28:12
  TRACK 40 AUDIO
    TITLE "0:"
    INDEX 01 00:29:19
  TRACK 41 AUDIO
    TITLE "5:cjc137_2202"
    INDEX 01 00:29:25
  TRACK 42 AUDIO
    TITLE "0:"
    INDEX 01 00:30:28
  TRACK 43 AUDIO
    TITLE "4:cjc137_2203"
    INDEX 01 00:31:35
  TRACK 44 AUDIO
    TITLE "0:"
    INDEX 01 00:32:45
  TRACK 45 AUDIO
    TITLE "6:cjc137_2204"
    INDEX 01 00:32:56
  TRACK 46 AUDIO
    TITLE "0:"
    INDEX 01 00:34:12
  TRACK 47 AUDIO
    TITLE "5:cjc137_2205"
    INDEX 01 00:34:20
  TRACK 48 AUDIO
    TITLE "0:"
    INDEX 01 00:35:31
  TRACK 49 AUDIO
    TITLE "4:cjc137_2206"
    INDEX 01 00:36:40
  TRACK 50 AUDIO
    TITLE "0:"
    INDEX 01 00:37:48
  TRACK 51 AUDIO
    TITLE "6:cjc137_2207"
    INDEX 01 00:37:54
  TRACK 52 AUDIO
    TITLE "0:"
    INDEX 01 00:38:63
  TRACK 53 AUDIO
    TITLE "5:cjc137_2208"
    INDEX 01 00:38:67
  TRACK 54 AUDIO
    TITLE "0:"
    INDEX 01 00:39:72
  TRACK 55 AUDIO
    TITLE "4:cjc137_2209"
    INDEX 01 00:41:04
  TRACK 56 AUDIO
    TITLE "0:"
    INDEX 01 00:42:27
  TRACK 57 AUDIO
    TITLE "6:cjc137_2210"
    INDEX 01 00:42:35
  TRACK 58 AUDIO
    TITLE "0:"
    INDEX 01 00:43:48
  TRACK 59 AUDIO
    TITLE "5:cjc137_2211"
    INDEX 01 00:43:54
  TRACK 60 AUDIO
    TITLE "0:"
    INDEX 01 00:45:00
  TRACK 61 AUDIO
    TITLE "4:cjc137_2212"
    INDEX 01 00:46:09
  TRACK 62 AUDIO
    TITLE "0:"
    INDEX 01 00:47:30
  TRACK 63 AUDIO
    TITLE "6:cjc137_2213"
    INDEX 01 00:47:36
  TRACK 64 AUDIO
    TITLE "0:"
    INDEX 01 00:48:36
  TRACK 65 AUDIO
    TITLE "5:cjc137_2214"
    INDEX 01 00:48:44
  TRACK 66 AUDIO
    TITLE "0:"
    INDEX 01 00:49:63
  TRACK 67 AUDIO
    TITLE "4:cjc137_2215"
    INDEX 01 00:50:70
  TRACK 68 AUDIO
    TITLE "0:"
    INDEX 01 00:52:12
  TRACK 69 AUDIO
    TITLE "6:cjc137_2216"
    INDEX 01 00:52:22
  TRACK 70 AUDIO
    TITLE "0:"
    INDEX 01 00:53:27
  TRACK 71 AUDIO
    TITLE "5:cjc137_2217"
    INDEX 01 00:53:33
  TRACK 72 AUDIO
    TITLE "0:"
    INDEX 01 00:54:52
  TRACK 73 AUDIO
    TITLE "4:cjc137_2218"
    INDEX 01 00:55:59
  TRACK 74 AUDIO
    TITLE "0:"
    INDEX 01 00:56:61
  TRACK 75 AUDIO
    TITLE "6:cjc137_2219"
    INDEX 01 00:56:71
  TRACK 76 AUDIO
    TITLE "0:"
    INDEX 01 00:57:60
  TRACK 77 AUDIO
    TITLE "5:cjc137_2220"
    INDEX 01 00:57:68
  TRACK 78 AUDIO
    TITLE "0:"
    INDEX 01 00:58:69
  TRACK 79 AUDIO
    TITLE "4:cjc137_2221"
    INDEX 01 01:00:02
  TRACK 80 AUDIO
    TITLE "0:"
    INDEX 01 01:01:03
  TRACK 81 AUDIO
    TITLE "6:cjc137_2222"
    INDEX 01 01:01:09
  TRACK 82 AUDIO
    TITLE "0:"
    INDEX 01 01:02:06
  TRACK 83 AUDIO
    TITLE "5:cjc137_2223"
    INDEX 01 01:02:16
  TRACK 84 AUDIO
    TITLE "0:"
    INDEX 01 01:03:18
